<?xml version="1.0" encoding="UTF-8"?>
<svg xmlns="http://www.w3.org/2000/svg" viewBox="0 0 533.5 544.3">
  <path fill="#4285F4" d="M533.5 278.4c0-17.4-1.6-34.1-4.6-50.4H272.1v95.3h147.1c-6.3 34.2-25.5 63.1-54.4 82.5v68h87.9c51.3-47.3 80.8-117.1 80.8-195.4z"/>
  <path fill="#34A853" d="M272.1 544.3c73.5 0 135.2-24.2 180.3-65.5l-87.9-68c-24.4 16.4-55.8 26.1-92.4 26.1-71 0-131.2-47.9-152.7-112.2h-91.2v70.5c45.1 89.9 137.8 148.9 243.9 148.9z"/>
  <path fill="#FBBC05" d="M119.4 324.6c-10.2-30.6-10.2-63.8 0-94.4V159.7h-91.2C-23.9 216.2-23.9 328.1 28.2 395.2l91.2-70.6z"/>
  <path fill="#EA4335" d="M272.1 106c39.9-.6 78.2 14.5 107.4 40.9l80.2-80.2C404.9 24.2 342.8.1 272.1 0 166 0 73.3 59 28.2 148.9l91.2 70.5C140.9 154.9 201.1 107 272.1 107z"/>
</svg> 